<svg x="0" y="0" width="300" height="300" version="1.1" xmlns="http://www.w3.org/2000/svg" xmlns:xlink="http://www.w3.org/1999/xlink"><g transform="translate(108.2017,199.35249) scale(2.43013,1.71066)" data-paper-data="{&quot;description&quot;:&quot;Logo for Q\n==========\n\nThis logo was generated by MarkMaker and is composed of elements designed by others.\n\nThe font is Rationale designed by Cyreal and released under the OFL license via Google Fonts: https://www.google.com/fonts/specimen/Rationale. The font includes this copyright statement: Copyright (c) 2011, Cyreal (www.cyreal.org a@cyreal.org) with Reserved Font Name \\\&quot;Rationale\\\&quot;.\n\nMarkMaker uses semantic data from the Princeton University WordNet database http://wordnet.princeton.edu and font descriptions from Google Fonts https://www.google.com/fonts.\n\nThis design is inspired by designs that past users of MarkMaker have liked. As a result, it may be visually similar to past or future designs generated by the system. There is no guarantee that it is unique, original, or suitable in any way for use as a logo.\n\n&quot;}" fill="none" stroke="none" stroke-width="none" stroke-linecap="butt" stroke-linejoin="miter" stroke-miterlimit="10" stroke-dasharray="" stroke-dashoffset="0" font-family="sans-serif" font-weight="normal" font-size="12" text-anchor="start" mix-blend-mode="normal"><path transform="translate(-7.23404,12.13385) scale(1.42058,1.42058)" d="M-15.46404,20.53l0,-98.76l65.32809,0l0,98.76z" fill="none" stroke="#22cccc" stroke-width="2.1"></path><g data-paper-data="{&quot;elementType&quot;:&quot;logo&quot;}" fill="#22cccc" stroke-width="1"><g data-paper-data="{&quot;elementType&quot;:&quot;text&quot;}"><g transform="translate(-7,-100)" data-paper-data="{&quot;baseline&quot;:70,&quot;elementType&quot;:&quot;row&quot;}"><g data-paper-data="{&quot;baselineProportion&quot;:0.8505467800729041,&quot;fontSize&quot;:100,&quot;baseline&quot;:70,&quot;elementType&quot;:&quot;word&quot;}"><path d="M7,39.5c0,-3.46667 0.71667,-5.91667 2.15,-7.35c1.43333,-1.43333 3.88333,-2.15 7.35,-2.15l15.4,0c3.46667,0 5.91667,0.71667 7.35,2.15c1.43333,1.43333 2.15,3.88333 2.15,7.35l0,51c0,3.46667 -0.71667,5.91667 -2.15,7.35c-1.43333,1.43333 -3.88333,2.15 -7.35,2.15l-5.6,0l0,0.8c0,2.33333 0.3,3.86667 0.9,4.6c0.6,0.73333 1.86667,1.1 3.8,1.1l4.3,0l0,3.1c0,1.06667 -0.15,1.78333 -0.45,2.15c-0.3,0.36667 -0.98333,0.55 -2.05,0.55l-3.8,0c-2.86667,0 -5,-0.73333 -6.4,-2.2c-1.4,-1.46667 -2.1,-3.9 -2.1,-7.3l0,-2.8l-4,0c-3.46667,0 -5.91667,-0.71667 -7.35,-2.15c-1.43333,-1.43333 -2.15,-3.88333 -2.15,-7.35l0,-51 M15,88.5c0,2.06667 0.26667,3.53333 0.8,4.4c0.53333,0.86667 1.83333,1.3 3.9,1.3l9,0c2.06667,0 3.36667,-0.43333 3.9,-1.3c0.53333,-0.86667 0.8,-2.33333 0.8,-4.4l0,-47c0,-2.06667 -0.26667,-3.53333 -0.8,-4.4c-0.53333,-0.86667 -1.83333,-1.3 -3.9,-1.3l-9,0c-2.06667,0 -3.36667,0.43333 -3.9,1.3c-0.53333,0.86667 -0.8,2.33333 -0.8,4.4l0,47z" data-paper-data="{&quot;elementType&quot;:&quot;letter&quot;,&quot;baseline&quot;:70,&quot;baselineProportion&quot;:0.8505467800729041,&quot;fontSize&quot;:100}"></path></g></g></g></g></g></svg>